<svg xmlns="http://www.w3.org/2000/svg" xmlns:xlink="http://www.w3.org/1999/xlink" width="1920" height="870" viewBox="0 0 1920 870">
  <defs>
    <clipPath id="clip-Artboard_2">
      <rect width="1920" height="870"/>
    </clipPath>
  </defs>
  <g id="Artboard_2" data-name="Artboard – 2" clip-path="url(#clip-Artboard_2)">
    <rect width="1920" height="870" fill="#134ab3"/>
    <path id="Path_10" data-name="Path 10" d="M0,4514.345S118.065,4379.9,267.1,4360.426s191.613,112.207,329.032,76.011,61.935-191.837,220.645-220.794,253.548,142.973,414.193,104.968,80.323-215.365,228.387-256.99,248.71,143.878,363.871,90.489,72.581-228.033,96.774-304.044" transform="translate(0 -3860.066)" fill="none" stroke="#051749" stroke-width="10" opacity="0.3"/>
    <g id="Component_3_6" data-name="Component 3 – 6" transform="matrix(-0.545, 0.839, -0.839, -0.545, 256.13, 237.119)" opacity="0.48">
      <g id="Ellipse_15" data-name="Ellipse 15" fill="#141b33" stroke="#051749" stroke-width="1">
        <ellipse cx="5.5" cy="6.5" rx="5.5" ry="6.5" stroke="none"/>
        <ellipse cx="5.5" cy="6.5" rx="5" ry="6" fill="none"/>
      </g>
      <g id="Ellipse_16" data-name="Ellipse 16" transform="translate(20)" fill="#141b33" stroke="#051749" stroke-width="1">
        <ellipse cx="5.5" cy="6.5" rx="5.5" ry="6.5" stroke="none"/>
        <ellipse cx="5.5" cy="6.5" rx="5" ry="6" fill="none"/>
      </g>
      <g id="Ellipse_17" data-name="Ellipse 17" transform="translate(40)" fill="#141b33" stroke="#051749" stroke-width="1">
        <ellipse cx="5.5" cy="6.5" rx="5.5" ry="6.5" stroke="none"/>
        <ellipse cx="5.5" cy="6.5" rx="5" ry="6" fill="none"/>
      </g>
      <g id="Ellipse_18" data-name="Ellipse 18" transform="translate(60)" fill="#141b33" stroke="#051749" stroke-width="1">
        <ellipse cx="5.5" cy="6.5" rx="5.5" ry="6.5" stroke="none"/>
        <ellipse cx="5.5" cy="6.5" rx="5" ry="6" fill="none"/>
      </g>
      <g id="Ellipse_19" data-name="Ellipse 19" transform="translate(80)" fill="#141b33" stroke="#051749" stroke-width="1">
        <ellipse cx="5.5" cy="6.5" rx="5.5" ry="6.5" stroke="none"/>
        <ellipse cx="5.5" cy="6.5" rx="5" ry="6" fill="none"/>
      </g>
      <g id="Ellipse_20" data-name="Ellipse 20" transform="translate(100)" fill="#141b33" stroke="#051749" stroke-width="1">
        <ellipse cx="5.5" cy="6.5" rx="5.5" ry="6.5" stroke="none"/>
        <ellipse cx="5.5" cy="6.5" rx="5" ry="6" fill="none"/>
      </g>
      <g id="Ellipse_21" data-name="Ellipse 21" transform="translate(120)" fill="#141b33" stroke="#051749" stroke-width="1">
        <ellipse cx="5.5" cy="6.5" rx="5.5" ry="6.5" stroke="none"/>
        <ellipse cx="5.5" cy="6.5" rx="5" ry="6" fill="none"/>
      </g>
      <g id="Ellipse_22" data-name="Ellipse 22" transform="translate(140)" fill="#141b33" stroke="#051749" stroke-width="1">
        <ellipse cx="5.5" cy="6.5" rx="5.5" ry="6.5" stroke="none"/>
        <ellipse cx="5.5" cy="6.5" rx="5" ry="6" fill="none"/>
      </g>
      <g id="Ellipse_23" data-name="Ellipse 23" transform="translate(160)" fill="#141b33" stroke="#051749" stroke-width="1">
        <ellipse cx="5.5" cy="6.5" rx="5.5" ry="6.5" stroke="none"/>
        <ellipse cx="5.5" cy="6.5" rx="5" ry="6" fill="none"/>
      </g>
      <g id="Ellipse_24" data-name="Ellipse 24" transform="translate(160 20)" fill="#141b33" stroke="#051749" stroke-width="1">
        <ellipse cx="5.5" cy="6.5" rx="5.5" ry="6.5" stroke="none"/>
        <ellipse cx="5.5" cy="6.5" rx="5" ry="6" fill="none"/>
      </g>
      <g id="Ellipse_25" data-name="Ellipse 25" transform="translate(160 40)" fill="#141b33" stroke="#051749" stroke-width="1">
        <ellipse cx="5.5" cy="6.5" rx="5.5" ry="6.5" stroke="none"/>
        <ellipse cx="5.5" cy="6.5" rx="5" ry="6" fill="none"/>
      </g>
      <g id="Ellipse_26" data-name="Ellipse 26" transform="translate(160 60)" fill="#141b33" stroke="#051749" stroke-width="1">
        <ellipse cx="5.5" cy="6.5" rx="5.5" ry="6.5" stroke="none"/>
        <ellipse cx="5.5" cy="6.5" rx="5" ry="6" fill="none"/>
      </g>
      <g id="Ellipse_27" data-name="Ellipse 27" transform="translate(160 80)" fill="#141b33" stroke="#051749" stroke-width="1">
        <ellipse cx="5.5" cy="6.5" rx="5.5" ry="6.5" stroke="none"/>
        <ellipse cx="5.5" cy="6.5" rx="5" ry="6" fill="none"/>
      </g>
      <g id="Ellipse_28" data-name="Ellipse 28" transform="translate(140 80)" fill="#141b33" stroke="#051749" stroke-width="1">
        <ellipse cx="5.5" cy="6.5" rx="5.5" ry="6.5" stroke="none"/>
        <ellipse cx="5.5" cy="6.5" rx="5" ry="6" fill="none"/>
      </g>
      <g id="Ellipse_29" data-name="Ellipse 29" transform="translate(120 80)" fill="#141b33" stroke="#051749" stroke-width="1">
        <ellipse cx="5.5" cy="6.5" rx="5.5" ry="6.5" stroke="none"/>
        <ellipse cx="5.5" cy="6.5" rx="5" ry="6" fill="none"/>
      </g>
      <g id="Ellipse_30" data-name="Ellipse 30" transform="translate(100 80)" fill="#141b33" stroke="#051749" stroke-width="1">
        <ellipse cx="5.5" cy="6.5" rx="5.5" ry="6.5" stroke="none"/>
        <ellipse cx="5.5" cy="6.5" rx="5" ry="6" fill="none"/>
      </g>
      <g id="Ellipse_31" data-name="Ellipse 31" transform="translate(80 80)" fill="#141b33" stroke="#051749" stroke-width="1">
        <ellipse cx="5.5" cy="6.5" rx="5.5" ry="6.5" stroke="none"/>
        <ellipse cx="5.5" cy="6.5" rx="5" ry="6" fill="none"/>
      </g>
      <g id="Ellipse_32" data-name="Ellipse 32" transform="translate(60 80)" fill="#141b33" stroke="#051749" stroke-width="1">
        <ellipse cx="5.5" cy="6.5" rx="5.5" ry="6.5" stroke="none"/>
        <ellipse cx="5.5" cy="6.5" rx="5" ry="6" fill="none"/>
      </g>
      <g id="Ellipse_33" data-name="Ellipse 33" transform="translate(40 80)" fill="#141b33" stroke="#051749" stroke-width="1">
        <ellipse cx="5.5" cy="6.5" rx="5.5" ry="6.5" stroke="none"/>
        <ellipse cx="5.5" cy="6.5" rx="5" ry="6" fill="none"/>
      </g>
      <g id="Ellipse_34" data-name="Ellipse 34" transform="translate(20 80)" fill="#141b33" stroke="#051749" stroke-width="1">
        <ellipse cx="5.5" cy="6.5" rx="5.5" ry="6.5" stroke="none"/>
        <ellipse cx="5.5" cy="6.5" rx="5" ry="6" fill="none"/>
      </g>
      <g id="Ellipse_35" data-name="Ellipse 35" transform="translate(0 80)" fill="#141b33" stroke="#051749" stroke-width="1">
        <ellipse cx="5.5" cy="6.5" rx="5.5" ry="6.5" stroke="none"/>
        <ellipse cx="5.5" cy="6.5" rx="5" ry="6" fill="none"/>
      </g>
      <g id="Ellipse_36" data-name="Ellipse 36" transform="translate(20 60)" fill="#141b33" stroke="#051749" stroke-width="1">
        <ellipse cx="5.5" cy="6.5" rx="5.5" ry="6.5" stroke="none"/>
        <ellipse cx="5.5" cy="6.5" rx="5" ry="6" fill="none"/>
      </g>
      <g id="Ellipse_37" data-name="Ellipse 37" transform="translate(20 60)" fill="#141b33" stroke="#051749" stroke-width="1">
        <ellipse cx="5.5" cy="6.5" rx="5.5" ry="6.5" stroke="none"/>
        <ellipse cx="5.5" cy="6.5" rx="5" ry="6" fill="none"/>
      </g>
      <g id="Ellipse_38" data-name="Ellipse 38" transform="translate(20 20)" fill="#141b33" stroke="#051749" stroke-width="1">
        <ellipse cx="5.5" cy="6.5" rx="5.5" ry="6.5" stroke="none"/>
        <ellipse cx="5.5" cy="6.5" rx="5" ry="6" fill="none"/>
      </g>
      <g id="Ellipse_39" data-name="Ellipse 39" transform="translate(20 40)" fill="#141b33" stroke="#051749" stroke-width="1">
        <ellipse cx="5.5" cy="6.5" rx="5.5" ry="6.5" stroke="none"/>
        <ellipse cx="5.5" cy="6.5" rx="5" ry="6" fill="none"/>
      </g>
      <g id="Ellipse_40" data-name="Ellipse 40" transform="translate(40 40)" fill="#141b33" stroke="#051749" stroke-width="1">
        <ellipse cx="5.5" cy="6.5" rx="5.5" ry="6.5" stroke="none"/>
        <ellipse cx="5.5" cy="6.5" rx="5" ry="6" fill="none"/>
      </g>
      <g id="Ellipse_41" data-name="Ellipse 41" transform="translate(60 40)" fill="#141b33" stroke="#051749" stroke-width="1">
        <ellipse cx="5.5" cy="6.5" rx="5.5" ry="6.5" stroke="none"/>
        <ellipse cx="5.5" cy="6.5" rx="5" ry="6" fill="none"/>
      </g>
      <g id="Ellipse_42" data-name="Ellipse 42" transform="translate(80 40)" fill="#141b33" stroke="#051749" stroke-width="1">
        <ellipse cx="5.5" cy="6.5" rx="5.5" ry="6.5" stroke="none"/>
        <ellipse cx="5.5" cy="6.5" rx="5" ry="6" fill="none"/>
      </g>
      <g id="Ellipse_43" data-name="Ellipse 43" transform="translate(100 40)" fill="#141b33" stroke="#051749" stroke-width="1">
        <ellipse cx="5.5" cy="6.5" rx="5.5" ry="6.5" stroke="none"/>
        <ellipse cx="5.5" cy="6.5" rx="5" ry="6" fill="none"/>
      </g>
      <g id="Ellipse_44" data-name="Ellipse 44" transform="translate(120 40)" fill="#141b33" stroke="#051749" stroke-width="1">
        <ellipse cx="5.5" cy="6.5" rx="5.5" ry="6.5" stroke="none"/>
        <ellipse cx="5.5" cy="6.5" rx="5" ry="6" fill="none"/>
      </g>
      <g id="Ellipse_45" data-name="Ellipse 45" transform="translate(140 40)" fill="#141b33" stroke="#051749" stroke-width="1">
        <ellipse cx="5.5" cy="6.5" rx="5.5" ry="6.5" stroke="none"/>
        <ellipse cx="5.5" cy="6.5" rx="5" ry="6" fill="none"/>
      </g>
      <g id="Ellipse_46" data-name="Ellipse 46" transform="translate(140 60)" fill="#141b33" stroke="#051749" stroke-width="1">
        <ellipse cx="5.5" cy="6.5" rx="5.5" ry="6.5" stroke="none"/>
        <ellipse cx="5.5" cy="6.5" rx="5" ry="6" fill="none"/>
      </g>
      <g id="Ellipse_47" data-name="Ellipse 47" transform="translate(120 60)" fill="#141b33" stroke="#051749" stroke-width="1">
        <ellipse cx="5.5" cy="6.5" rx="5.5" ry="6.5" stroke="none"/>
        <ellipse cx="5.5" cy="6.5" rx="5" ry="6" fill="none"/>
      </g>
      <g id="Ellipse_48" data-name="Ellipse 48" transform="translate(100 60)" fill="#141b33" stroke="#051749" stroke-width="1">
        <ellipse cx="5.5" cy="6.5" rx="5.5" ry="6.5" stroke="none"/>
        <ellipse cx="5.5" cy="6.5" rx="5" ry="6" fill="none"/>
      </g>
      <g id="Ellipse_49" data-name="Ellipse 49" transform="translate(80 60)" fill="#141b33" stroke="#051749" stroke-width="1">
        <ellipse cx="5.5" cy="6.5" rx="5.5" ry="6.5" stroke="none"/>
        <ellipse cx="5.5" cy="6.5" rx="5" ry="6" fill="none"/>
      </g>
      <g id="Ellipse_50" data-name="Ellipse 50" transform="translate(60 60)" fill="#141b33" stroke="#051749" stroke-width="1">
        <ellipse cx="5.5" cy="6.5" rx="5.5" ry="6.5" stroke="none"/>
        <ellipse cx="5.5" cy="6.5" rx="5" ry="6" fill="none"/>
      </g>
      <g id="Ellipse_51" data-name="Ellipse 51" transform="translate(40 60)" fill="#141b33" stroke="#051749" stroke-width="1">
        <ellipse cx="5.5" cy="6.5" rx="5.5" ry="6.5" stroke="none"/>
        <ellipse cx="5.5" cy="6.5" rx="5" ry="6" fill="none"/>
      </g>
      <g id="Ellipse_52" data-name="Ellipse 52" transform="translate(40 20)" fill="#141b33" stroke="#051749" stroke-width="1">
        <ellipse cx="5.5" cy="6.5" rx="5.5" ry="6.5" stroke="none"/>
        <ellipse cx="5.5" cy="6.5" rx="5" ry="6" fill="none"/>
      </g>
      <g id="Ellipse_53" data-name="Ellipse 53" transform="translate(60 20)" fill="#141b33" stroke="#051749" stroke-width="1">
        <ellipse cx="5.5" cy="6.5" rx="5.5" ry="6.5" stroke="none"/>
        <ellipse cx="5.5" cy="6.5" rx="5" ry="6" fill="none"/>
      </g>
      <g id="Ellipse_54" data-name="Ellipse 54" transform="translate(80 20)" fill="#141b33" stroke="#051749" stroke-width="1">
        <ellipse cx="5.5" cy="6.5" rx="5.5" ry="6.5" stroke="none"/>
        <ellipse cx="5.5" cy="6.5" rx="5" ry="6" fill="none"/>
      </g>
      <g id="Ellipse_55" data-name="Ellipse 55" transform="translate(100 20)" fill="#141b33" stroke="#051749" stroke-width="1">
        <ellipse cx="5.5" cy="6.5" rx="5.5" ry="6.5" stroke="none"/>
        <ellipse cx="5.5" cy="6.5" rx="5" ry="6" fill="none"/>
      </g>
      <g id="Ellipse_56" data-name="Ellipse 56" transform="translate(120 20)" fill="#141b33" stroke="#051749" stroke-width="1">
        <ellipse cx="5.5" cy="6.5" rx="5.5" ry="6.5" stroke="none"/>
        <ellipse cx="5.5" cy="6.5" rx="5" ry="6" fill="none"/>
      </g>
      <g id="Ellipse_57" data-name="Ellipse 57" transform="translate(140 20)" fill="#141b33" stroke="#051749" stroke-width="1">
        <ellipse cx="5.5" cy="6.5" rx="5.5" ry="6.5" stroke="none"/>
        <ellipse cx="5.5" cy="6.5" rx="5" ry="6" fill="none"/>
      </g>
    </g>
  </g>
</svg>
