<svg xmlns="http://www.w3.org/2000/svg" width="56" height="56" viewBox="0 0 56 56">
  <path id="twitter" d="M50.244,62.038c.036.612.036,1.225.036,1.838,0,18.681-11.548,40.206-32.655,40.206A28.2,28.2,0,0,1,0,97.738a19.331,19.331,0,0,0,2.772.175A20.426,20.426,0,0,0,17.02,91.876c-5.046-.131-9.274-4.2-10.731-9.8a11.824,11.824,0,0,0,2.168.219,10,10,0,0,0,3.02-.481c-5.259-1.313-9.2-7-9.2-13.869V67.77a9.983,9.983,0,0,0,5.188,1.794A15.2,15.2,0,0,1,2.345,57.794a16.573,16.573,0,0,1,1.563-7.131c5.65,8.575,14.142,14.175,23.665,14.788a19.508,19.508,0,0,1-.284-3.237c0-7.788,5.117-14.131,11.477-14.131a10.584,10.584,0,0,1,8.386,4.463,20.229,20.229,0,0,0,7.284-3.412,13.95,13.95,0,0,1-5.046,7.787A19.717,19.717,0,0,0,56,54.732,28.519,28.519,0,0,1,50.244,62.038Z" transform="translate(0 -48.082)" fill="#051749"/>
</svg>
