<svg xmlns="http://www.w3.org/2000/svg" width="56" height="56" viewBox="0 0 56 56">
  <path id="instagram" d="M27.931,45.467A14.358,14.358,0,1,0,42.286,59.825,14.333,14.333,0,0,0,27.931,45.467Zm0,23.692a9.334,9.334,0,1,1,9.332-9.334A9.35,9.35,0,0,1,27.931,69.159ZM46.221,44.88a3.348,3.348,0,1,1-3.348-3.349A3.341,3.341,0,0,1,46.221,44.88Zm9.507,3.4c-.212-4.486-1.237-8.46-4.522-11.734s-7.246-4.3-11.731-4.523c-4.622-.262-18.477-.262-23.1,0-4.473.212-8.445,1.237-11.731,4.511S.347,43.78.122,48.266c-.262,4.623-.262,18.481,0,23.1.212,4.486,1.237,8.46,4.522,11.734s7.246,4.3,11.731,4.523c4.622.262,18.477.262,23.1,0,4.485-.212,8.458-1.237,11.731-4.523s4.3-7.248,4.522-11.734C55.991,66.748,55.991,52.9,55.728,48.279ZM49.757,76.332a9.449,9.449,0,0,1-5.322,5.323C40.749,83.117,32,82.78,27.931,82.78s-12.83.325-16.5-1.125a9.449,9.449,0,0,1-5.322-5.323C4.644,72.646,4.982,63.9,4.982,59.825S4.657,46.992,6.106,43.318a9.449,9.449,0,0,1,5.322-5.323c3.685-1.462,12.431-1.125,16.5-1.125s12.83-.325,16.5,1.125a9.449,9.449,0,0,1,5.322,5.323C51.218,47,50.881,55.751,50.881,59.825S51.218,72.658,49.757,76.332Z" transform="translate(0.075 -31.825)" fill="#051749"/>
</svg>
